<svg xmlns="http://www.w3.org/2000/svg" viewBox="0 0 381.81 152.13"><defs><style>.cls-1,.cls-5{fill:#be1e2d;}.cls-2,.cls-3,.cls-4,.cls-6{fill:#231f20;}.cls-3{font-size:118px;}.cls-3,.cls-4,.cls-5,.cls-6{font-family:CloisterBlack-Light, Cloister Black;font-weight:300;}.cls-4{font-size:49px;letter-spacing:0.01em;}.cls-5{font-size:37px;letter-spacing:0.01em;}.cls-6{font-size:19px;}</style></defs><title>Dockendorf Possible Final logo</title><g id="colors"><path class="cls-1" d="M219.82,354.08c-3.15,1-6.92,2.76-6.89,6.64,0,4.11,4.57,7.57,7.74,9.49a25.78,25.78,0,0,0,26.33,0l-2.57-2.56-3,1.51.49,3.68c10-3.71,18.59-5.3,28.85-1.71,5.87,2.05,12.2,3.42,17.08-1.46a1.9,1.9,0,0,0-1.83-3.14c-8.16,2.08-15.55-3.58-23.37-4.91a37.75,37.75,0,0,0-10.72.1c-3.56.4-16.81,2.54-13.91-5.25H234.4a15.71,15.71,0,0,0,4.85,6.87c1.49,1.25,4.32-.43,2.94-2.27a14.85,14.85,0,0,1-2.92-6.84,1.88,1.88,0,0,0-3.13-.83,12.47,12.47,0,0,1-16.08,3.12,1.9,1.9,0,0,0-1.89,0c-8.17,4.84,6.72,11.68,9.81,13.3l1.44-3.42-9.09-3.57v3.62L235.45,364c2.19-.35,1.49-3.56-.5-3.68a74.05,74.05,0,0,0-12.37.25,1.88,1.88,0,0,0,0,3.75,31,31,0,0,0,15.57-2.9c2.09-1,.47-3.73-1.45-3.43a134.7,134.7,0,0,1-16.53,1.53,1.88,1.88,0,0,0,0,3.75,24.8,24.8,0,0,1,12.25,4.35V364.4l-3.88.24c-1.54-.59-2.95,1.43-2.11,2.75,2.32,3.68,9.3,7.63,11.62,1.5,1.59-4.2-4-7.44-6.89-4.19a1.91,1.91,0,0,0,0,2.65c2.51,2.49,11.15,4.65,10.42-1.47a4.31,4.31,0,0,0-3.52-3.55c-2.92-.52-4.9,1.85-6,4.21-.54,1.14.08,3,1.62,2.82q9.39-1,18.7-2.53l-1-3.61c-6.88,1.69-13.82,1.58-20.86,1.37v3.75a177.07,177.07,0,0,1,34.3-.24c2.43.21,2.36-3.48,0-3.75-5-.59-10.12-1.14-15.18-.53a28.07,28.07,0,0,0-6.57,1.56c-2.3.88-6.92,4.35-9.23,1.37-1.48-1.91-4.11.76-2.65,2.65,3.11,4,7.41,2.17,11.22.37,7.1-3.36,14.85-2.55,22.41-1.67v-3.75a177.07,177.07,0,0,0-34.3.24c-2.36.24-2.46,3.67,0,3.75,7.38.23,14.66.27,21.86-1.51,2.38-.59,1.34-4-1-3.61q-8.82,1.45-17.7,2.39l1.62,2.82q1.65-2.13-1.47-3.73v2.65l-4.15-1.85-2.11,2.75a7.11,7.11,0,0,0,6.76-.61,1.9,1.9,0,0,0,0-3.24,28.88,28.88,0,0,0-14.14-4.86v3.75a145,145,0,0,0,17.53-1.66l-1.44-3.43a27.09,27.09,0,0,1-13.68,2.39v3.75a74.05,74.05,0,0,1,12.37-.25l-.5-3.69-15.11,2.44c-2,.33-1.51,3,0,3.62l9.08,3.56c2,.78,3.31-2.45,1.45-3.43-1.29-.67-10.35-4.63-10.59-6.19.18,1.13,5.68,1.59,6.47,1.61a16.16,16.16,0,0,0,13-5.95l-3.14-.83A16.85,16.85,0,0,0,239,363l3-2.28a12.07,12.07,0,0,1-3.88-5.22,1.9,1.9,0,0,0-3.62,0,7.43,7.43,0,0,0,3,8.86c4.63,3.11,11.17,1.45,16.24.94,6.77-.67,12.19,1,18.46,3.24,4.95,1.79,9.71,3,14.91,1.64L285.19,367c-6,6-15.78-1.27-22.62-1.92-7.45-.7-14.75,1.59-21.64,4.14-1.86.68-1.76,3.79.5,3.68a7.44,7.44,0,0,0,6.24-3.37c1.17-1.56-1.06-3.46-2.57-2.57A21.64,21.64,0,0,1,229,369.54c-4-.92-18.35-8.47-8.17-11.84,2.28-.76,1.3-4.38-1-3.62Z" transform="translate(-196.39 -231.95)"/><path class="cls-1" d="M235,251.66c-3.54-4.89,1.9-9.1,6.6-9.34,3.08-.16,6.11.86,9,1.76A191.51,191.51,0,0,0,270,249.25c9.35,1.86,19.43,2.33,27.11-4.18l-2.94-2.27c-7.45,9.85-21.18,6.11-31.43,4.53a47.4,47.4,0,0,0-12.47-.63c-5,.56-11.35,4.54-16.3,2.23l.86,2.12a21.48,21.48,0,0,1,3.47-6.4l-3.43-1.44a13.1,13.1,0,0,1-1.08,3.44c-.95,2.16,2,4,3.23,1.9l3.12-5.25-3.42-.45a32.48,32.48,0,0,1,.75,5.55c.07,1.44,2.13,2.71,3.2,1.33l3.95-5.11-2.95-.38c3.55,5.35,9.36,1.83,13.95,4.88l.95-3.49c-6.09-.09-12.14-.28-17.62-3.24l-.44,3.43A17.37,17.37,0,0,1,251.19,247l.95-3.49-18.59,1.41a1.88,1.88,0,0,0,0,3.75L246,250l-.5-3.68a20.16,20.16,0,0,1-9.07.43v3.62a165.2,165.2,0,0,1,28.47-1.4c2.41.09,2.41-3.66,0-3.75a171.83,171.83,0,0,0-29.47,1.53c-1.82.25-1.76,3.31,0,3.62a24.74,24.74,0,0,0,11.06-.44c2.18-.58,1.5-3.46-.49-3.68l-12.47-1.35v3.75l18.59-1.41c1.69-.13,2.76-2.61,1-3.5a21.38,21.38,0,0,0-15.56-1.54,1.9,1.9,0,0,0-.45,3.43c6.1,3.29,12.7,3.65,19.51,3.75a1.89,1.89,0,0,0,.94-3.5c-3.18-2.12-10.53-.41-12.6-3.53-.59-.89-2.16-1.4-3-.38L238,247.08l3.2,1.32a37.83,37.83,0,0,0-.89-6.54,1.89,1.89,0,0,0-3.42-.45l-3.12,5.24,3.23,1.9a23,23,0,0,0,1.47-4.35,1.89,1.89,0,0,0-3.43-1.44,25,25,0,0,0-3.85,7.29,1.9,1.9,0,0,0,.86,2.12c5.08,2.37,9.46.47,14.56-.93,7.51-2.06,15-.24,22.47,1,10.3,1.66,21.46,1.54,28.3-7.51,1.37-1.8-1.43-3.55-2.94-2.27-12.07,10.22-32.32,1-45.27-2.69-5.12-1.43-11.18-2-15.6,1.57a9,9,0,0,0-1.86,12.25c1.41,1.94,4.66.07,3.24-1.89Z" transform="translate(-196.39 -231.95)"/><path class="cls-1" d="M241.71,254a1.88,1.88,0,0,0,0-3.75,1.88,1.88,0,0,0,0,3.75Z" transform="translate(-196.39 -231.95)"/><path class="cls-1" d="M477.82,245.23a23.31,23.31,0,0,0,13.53,7.3l.5-3.68a6.1,6.1,0,0,1-6.17-3.86l-2.31,2.31c4.33,1.12,7.43,3,12.11,2.8a86.59,86.59,0,0,0,12.7-1.85,124.22,124.22,0,0,0,15-3.78c5-1.61,13.3-4.53,16.82,1.26.81,1.35,1.53,2.67.46,4s-3,.57-4.57.28c-2.4-.44-4.74-1.17-7.11-1.71a40.3,40.3,0,0,0-14-.74c-11.06,1.29-21,4-31.69-.74l-.95,3.49a234.49,234.49,0,0,0,32.13-1.07c4.55-.47,9.1-1.07,13.62-1.81a30,30,0,0,1,3.73-.64,1.84,1.84,0,0,1,2.82.49c1.4.91,1.26,1.13-.45.66-2.93.06-6.21-1.62-8.65-3l-.44,3.42a21.16,21.16,0,0,1,12.73.88v-3.62a15.11,15.11,0,0,1-9.76-1.22l.38,2.95a8.43,8.43,0,0,1,5.18-2.71c2.08-.36,1.6-3.78-.5-3.69a82.79,82.79,0,0,0-12.54,1.55c-2.36.47-1.36,4.09,1,3.61a75.94,75.94,0,0,1,11.54-1.41l-.5-3.68a11.66,11.66,0,0,0-6.83,3.68,1.89,1.89,0,0,0,.38,2.94,19.76,19.76,0,0,0,12.64,1.6c2-.38,1.57-3,0-3.62a24.6,24.6,0,0,0-14.72-.87,1.89,1.89,0,0,0-.45,3.42c4,2.25,12.69,6.2,16.89,2.28,3.5-3.25-.24-7.67-4-8s-7.7,1.11-11.3,1.66q-7.24,1.11-14.53,1.74a235.45,235.45,0,0,1-28.36.71c-1.76,0-2.68,2.73-.94,3.5a38.61,38.61,0,0,0,16.45,3.52c6.69-.14,13.17-2.07,19.83-2.53,7.22-.48,13.54,2.36,20.57,3.09,4.19.43,6.58-.56,6.74-5.21.36-10.44-12.08-11.24-19.36-9.16-6.39,1.83-12.58,3.79-19.14,5-3.81.7-7.75,1.58-11.64,1.58s-6.75-1.79-10.27-2.71c-1.26-.33-2.87.92-2.31,2.31a9.82,9.82,0,0,0,9.79,6.61c2,0,2.67-3.32.5-3.68a20.23,20.23,0,0,1-11.88-6.35c-1.65-1.76-4.29.89-2.65,2.66Z" transform="translate(-196.39 -231.95)"/><path class="cls-1" d="M534.44,254.38a1.88,1.88,0,0,0,0-3.75,1.88,1.88,0,0,0,0,3.75Z" transform="translate(-196.39 -231.95)"/><path class="cls-1" d="M541.58,255.45a1.88,1.88,0,0,0,0-3.75,1.88,1.88,0,0,0,0,3.75Z" transform="translate(-196.39 -231.95)"/><path class="cls-1" d="M534.9,355.93l-1.31,4.26a5.51,5.51,0,0,1-3.73,1.8,12.68,12.68,0,0,1-4.46.3c-3-.22-5.89-1-8.91-.94A24.68,24.68,0,0,0,504,365c-1.78,1-.61,4.17,1.44,3.43a8.36,8.36,0,0,0,3.69-2.42,1.88,1.88,0,0,0-2.28-2.94,43,43,0,0,1-17.65,4.22V371a6.28,6.28,0,0,1,4.94,1.17l.45-3.43.1.27-2.12,2.76c4.71,1.48,8.63.9,13.13-.95,6.11-2.52,11.56-1.88,17.77-.05,8.69,2.55,17.56,6.09,26.51,2.53,5.45-2.16,14.93-9.55,11-16.47-1.4-2.45-4.59-3.9-7.22-2.6-1.7.84-2.39,2.71-4.15,3.55-3.67,1.75-8.11-.68-11.36-2.34a1.9,1.9,0,0,0-2.57,2.57c1.52,3.2,2,4.52-2.68,5.76a30.56,30.56,0,0,1-5.58.51,97,97,0,0,1-11.18,0l1.32,3.2c3.25-3.05,10.12-.39,14.24-.68a28,28,0,0,0,11.8-3.74c1.93-1.09.57-3.81-1.45-3.42l-3.41.65,2.12.87,0-3.22-2.57.67a21.14,21.14,0,0,0,18.85,2l-2.31-1.31c1,5.71-5.94,8.57-10.35,9.38a23.07,23.07,0,0,1-14-2l-.44,3.42a80.93,80.93,0,0,0,10.47-2.94c1.3-.47,2.57-1,3.84-1.5,1.46-.62,4.35-2.75,5.91-2.7q2-1.32.44,1.41c-.88.26-1.77.48-2.66.68a51.34,51.34,0,0,1-6.75,1.11,56.32,56.32,0,0,1-13.23-.31l-.5,3.69a185.23,185.23,0,0,0,27-5.18c2.33-.63,1.34-4.25-1-3.62a177.15,177.15,0,0,1-26,5.05c-1.88.21-2.78,3.37-.49,3.68a61.36,61.36,0,0,0,19.27-.24c3.31-.6,10.33-1.5,10.42-6.18.08-3.87-4.09-4.9-7.14-3.9s-6.12,2.9-9.25,4.08A82.37,82.37,0,0,1,529,366.45a1.89,1.89,0,0,0-.45,3.42c6.72,3.16,14.49,3.94,21.47,1,5.28-2.22,9.43-6.65,8.41-12.64a1.89,1.89,0,0,0-2.31-1.31,17.63,17.63,0,0,1-15.95-1.59,1.9,1.9,0,0,0-2.57.68,6.7,6.7,0,0,0,0,7,1.92,1.92,0,0,0,2.12.86l3.41-.66-1.44-3.42c-5.72,3.21-11,3.42-17.4,2.74-3.57-.37-6.67-.31-9.4,2.26a1.9,1.9,0,0,0,1.33,3.2,97.83,97.83,0,0,0,13-.11c2.66-.22,6.06-.14,8.46-1.41,4.11-2.2,2.81-6.93,1.18-10.37l-2.56,2.56c5.27,2.69,12,5.47,17.28,1.13.87-.71,4.49-5.73,4.21,1.49-.1,2.48-3.78,5.38-5.64,6.64a19.07,19.07,0,0,1-11.62,3.18c-8.13-.37-15.5-4.63-23.52-5.65a23.1,23.1,0,0,0-8.33.29c-5.48,1.33-9.16,4.28-15.14,2.39-1.48-.46-3.08,1.41-2.12,2.76s2.32,2.16,4.13,1.45a1.9,1.9,0,0,0,.45-3.43,11.32,11.32,0,0,0-6.83-1.68c-2.39.14-2.43,3.82,0,3.75a47.86,47.86,0,0,0,19.55-4.73l-2.27-2.95-2,1.45,1.44,3.43a21.47,21.47,0,0,1,13.23-3c4,.36,8,1.55,11.95.51,5-1.31,8.59-5.6,7.45-10.81-.51-2.36-4.13-1.36-3.61,1Z" transform="translate(-196.39 -231.95)"/><path class="cls-1" d="M509.8,365a1.88,1.88,0,0,0,0-3.75,1.88,1.88,0,0,0,0,3.75Z" transform="translate(-196.39 -231.95)"/><path class="cls-1" d="M492,372.9a1.88,1.88,0,0,0,0-3.75,1.88,1.88,0,0,0,0,3.75Z" transform="translate(-196.39 -231.95)"/><path class="cls-1" d="M507.31,365.4a1.88,1.88,0,0,0,0-3.75,1.88,1.88,0,0,0,0,3.75Z" transform="translate(-196.39 -231.95)"/><path class="cls-1" d="M227.19,353.72c-.79-.73-.71-1.26.24-1.57l1.17-.3c.87-.14,1.77-.05,2.64-.17a6,6,0,0,0,3.7-1.68,1.9,1.9,0,0,0-1.33-3.2,27.6,27.6,0,0,0-6.22.36c-2.06.35-1.6,4,.5,3.69,4.23-.54,10.31-.22,12.15-5a1.88,1.88,0,0,0-1.81-2.37,18.74,18.74,0,0,0-6.29,1.87l1.89,3.24a19.4,19.4,0,0,1,5-1.87l-2.31-2.31a25.84,25.84,0,0,0-1,6.93l1.37-1.81a17.67,17.67,0,0,0-4.57,1.23c-.62.26-4,1.59-4,2.32-.16,1.48,3.49.77,4.24.62s4.47-1.89,4.87-1.59a1.88,1.88,0,0,0,2.75-1.12l.51-2.37c.5-2.36-3.12-3.36-3.62-1l-.5,2.37,2.75-1.12c-2.55-1.89-5.78,1-8.47,1.28s-6.05.19-6.38,3.59a3.1,3.1,0,0,0,3.81,3.36c1.57-.27,2.78-1.46,4.12-2.22a15.34,15.34,0,0,1,5.52-1.73,1.89,1.89,0,0,0,1.38-1.81,22.08,22.08,0,0,1,.86-5.93,1.9,1.9,0,0,0-2.31-2.31,23.15,23.15,0,0,0-5.86,2.25c-2.13,1.16-.25,4.32,1.89,3.24a13.1,13.1,0,0,1,4.4-1.36l-1.81-2.37c-.84,2.17-6.66,1.95-8.53,2.19l.49,3.68a22.91,22.91,0,0,1,5.23-.23l-1.32-3.2c-1.41,1.33-4.31.56-6.1,1.28a5.69,5.69,0,0,0-3.37,3.4c-1,3.21,2.16,6.52,5.37,5.31,2.24-.85,1.27-4.47-1-3.62Z" transform="translate(-196.39 -231.95)"/><path class="cls-1" d="M246.45,375.16c2.37,1.3,4.64,1.35,7.3,1.34a23.7,23.7,0,0,1,10.4,2.08c1.83.85,3.89-1.36,2.27-2.94l-4.5-4.37c-.92-.9-2-2.55-3.32-2.91-1-.29-2.4.25-3.41.44l-6,1.11c-2.16.39-1.52,3.59.5,3.68l9.52.44c2.41.11,2.41-3.64,0-3.75l-9.52-.44.5,3.68L258.6,372l-1.83-.48,7,6.8,2.27-2.94a26.51,26.51,0,0,0-7.66-2.37c-3.22-.44-7.13.55-10-1.06-2.11-1.17-4,2.07-1.89,3.24Z" transform="translate(-196.39 -231.95)"/><path class="cls-1" d="M277.77,375.27a8.19,8.19,0,0,0,5.82,2.62c2.85.22,5.93-.79,8.49.84l1.89-3.24a53.8,53.8,0,0,0-11.35-4.4c-2.34-.6-3.34,3-1,3.62a49.15,49.15,0,0,1,10.46,4,1.88,1.88,0,0,0,1.89-3.24,10.76,10.76,0,0,0-6.43-1.43c-2.45.08-5.31.64-7.11-1.44-1.59-1.83-4.23.84-2.66,2.65Z" transform="translate(-196.39 -231.95)"/><path class="cls-1" d="M265.27,365.4a1.88,1.88,0,0,0,0-3.75,1.88,1.88,0,0,0,0,3.75Z" transform="translate(-196.39 -231.95)"/><path class="cls-1" d="M243.77,255.84c6.93,3.89,14.48,2.43,21.82.53l-1.44-3.43a5.91,5.91,0,0,1-3.79,1.56l.5,3.68a62.68,62.68,0,0,1,31.23,3.3c1.75.64,3.21-1.93,1.83-3.13a36.27,36.27,0,0,0-8.47-5.59c-2.17-1-4.07,2.2-1.89,3.24a33.11,33.11,0,0,1,7.71,5l1.82-3.14a66.52,66.52,0,0,0-33.23-3.29c-2.07.31-1.6,3.88.5,3.68a10.5,10.5,0,0,0,5.68-2.07c1.63-1.21.74-4-1.45-3.43-6.27,1.63-12.94,3.21-18.93-.15-2.11-1.18-4,2.05-1.89,3.24Z" transform="translate(-196.39 -231.95)"/><path class="cls-1" d="M265.4,252.18c-5.71-.85-12.92-2.25-18.24.61-1.3.7-1.19,3.21.45,3.43,7.44,1,16.15,2.7,23.27-.38,1.46-.63,1.06-3.13-.45-3.42-2.41-.47-5.43-1.21-7.9-.7-2.91.6-4.22,3.11-7.6,2.79-2.4-.23-2.39,3.52,0,3.75a10.46,10.46,0,0,0,5.56-1c1.37-.61,1.64-1.48,3.41-1.85s3.87.32,5.54.64l-.45-3.42c-5.9,2.54-14.26.82-20.38,0l.44,3.43c4.18-2.25,10.9-.89,15.35-.23,2.36.35,3.38-3.27,1-3.62Z" transform="translate(-196.39 -231.95)"/><path class="cls-1" d="M257.56,259l2.83-.81a1.87,1.87,0,1,0-1-3.61l-2.83.81a1.87,1.87,0,1,0,1,3.61Z" transform="translate(-196.39 -231.95)"/><path class="cls-1" d="M249.66,240.82c3.57-2.57,10-.21,14.2-.33,3.26-.1,6.17-1.06,8.25-3.66l-2.94-2.27L263.86,242l2.56-.68a23.88,23.88,0,0,0-8.48-3.64c-2.35-.52-3.35,3.09-1,3.61a21.69,21.69,0,0,1,7.58,3.27,1.91,1.91,0,0,0,2.57-.67l5.31-7.45c1.22-1.71-1.62-3.94-3-2.27-5.17,6.47-15.42-1.12-21.69,3.41-1.94,1.39-.07,4.65,1.89,3.23Z" transform="translate(-196.39 -231.95)"/><path class="cls-1" d="M498.28,239.38a27.82,27.82,0,0,1,4.76,5.78l3.24-1.89a5.19,5.19,0,0,1-1.25-3.6l-2.37,1.8a29.63,29.63,0,0,0,8.2.35c2.73-.22,6.56-1.09,9.19,0l-1.31-1.31.08.48.48-1.82c-1.68,1.73-7.88,1.07-10.15,1.36a8.93,8.93,0,0,0-2.72.61c-.92.41-1.61,1.43-2.68,1.45-2.41,0-2.41,3.77,0,3.75,1.61,0,2.08-.65,3.5-1.31,2.71-1.27,6.17-1,9.11-1.42,1.92-.27,5.65-.3,6.11-2.87.42-2.38-2.07-2.83-3.82-3-5-.4-10,1.1-15,.13a1.9,1.9,0,0,0-2.37,1.81,9.79,9.79,0,0,0,1.76,5.49c1.34,2,4.53.18,3.24-1.89a31.12,31.12,0,0,0-5.35-6.54c-1.76-1.65-4.42,1-2.65,2.65Z" transform="translate(-196.39 -231.95)"/><path class="cls-1" d="M484.4,260.5a14.56,14.56,0,0,1,6.91-5.8L489,251.76a82.42,82.42,0,0,1-8.56,7c-1.92,1.38-.22,4.5,1.89,3.24,4.51-2.69,8.93-5.16,14.36-4.74l-.5-3.68-5.73,1.09c-2.37.45-1.36,4.05,1,3.61,13.58-2.49,27.44,3,40.58-2.62,1.45-.63,1.08-3.17-.45-3.43-7.51-1.3-17.86-4.49-24.95-.57-1.73.95-.8,3.35.95,3.49l18.6,1.46c2.4.19,2.39-3.56,0-3.75l-18.6-1.46.95,3.49c5.83-3.22,15.88-.11,22.06,1l-.45-3.43c-12.49,5.37-26.65-.15-39.69,2.25l1,3.61,5.72-1.09c2.2-.41,1.49-3.52-.49-3.68-6.07-.47-11.18,2.22-16.25,5.25l1.89,3.24a92,92,0,0,0,9.33-7.62c1.68-1.57-.46-3.73-2.28-2.95a17.93,17.93,0,0,0-8.25,7.15c-1.3,2,1.95,3.92,3.24,1.89Z" transform="translate(-196.39 -231.95)"/><path class="cls-1" d="M526.42,254.2a18.53,18.53,0,0,1-10.41.08,1.88,1.88,0,0,0-1,3.62,22.38,22.38,0,0,0,12.41-.08c2.31-.68,1.33-4.3-1-3.62Z" transform="translate(-196.39 -231.95)"/><path class="cls-1" d="M537.94,351.42a18.23,18.23,0,0,1,.08-5.85l-3.43.45c1.55,3.63,7.11,2.42,10.08,3.89a6.79,6.79,0,0,1,3.21,2.67c1.2,2.61-1.77,2.18-3.11,1.57-1.75-.79-6-2.81-6.36-4.85l-.19,1.44c-.13.28,9.77,3.76,10.23,4.8l-.19-1.44c0-.06-2.86-1.07-3.51-1.34a56,56,0,0,1-5.18-2.5c-2.13-1.14-4,2.1-1.89,3.24,3,1.62,7.82,4.71,11.4,4.27,2.94-.37,3.66-3.7,1.57-5.58-1.39-1.26-3.5-1.75-5.2-2.41-2.2-.85-4.52-2.13-6.82-2.59-2.9-.58-4.75,2-3.32,4.55s5.94,5.06,8.71,6.17,6.22.87,7.48-2.27-.79-6.26-3.38-8a14.83,14.83,0,0,0-5.44-2.31c-1.25-.25-4.28.16-4.85-1.18s-3.15-1.06-3.43.45a21.28,21.28,0,0,0-.21,6.85c.31,2.35,4.06,2.38,3.75,0Z" transform="translate(-196.39 -231.95)"/><path class="cls-1" d="M523.62,371.22c-2.1,2.43-5.74,1.23-8.57,1.52a17.12,17.12,0,0,0-7,2.41l2.28,3c1.76-1.44,4.44-4.51,6.57-5.07,2.46-.65,6.24,1,8.34,2.09a1.89,1.89,0,0,0,2.56-2.57c-2.5-4.32-10.32.33-13.36-3.16-1.59-1.82-4.23.84-2.65,2.65a6.23,6.23,0,0,0,4.35,2c1.19.14,2.41.17,3.61.24.44,0,4.77,0,4.82.11l2.56-2.56c-3.13-1.59-7.43-3.31-11-2.56-3.1.64-6.06,4.19-8.44,6.13-1.67,1.36.48,4,2.28,2.94,3.52-2.08,6.54-1.71,10.43-1.93a7.87,7.87,0,0,0,5.85-2.59c1.58-1.81-1.07-4.48-2.65-2.65Z" transform="translate(-196.39 -231.95)"/><path class="cls-1" d="M493.46,374.21c.88,1-4.74,1-5.14,1.06a26,26,0,0,0-6,1l1.44,3.43a27.42,27.42,0,0,1,10.18-4.07c2.37-.44,1.36-4-1-3.62a30.18,30.18,0,0,0-11.07,4.45c-1.73,1.13-.68,4,1.44,3.43a24.72,24.72,0,0,1,7.05-.9,8.74,8.74,0,0,0,4.57-.82,4.32,4.32,0,0,0,1.18-6.63c-1.6-1.81-4.24.85-2.65,2.65Z" transform="translate(-196.39 -231.95)"/><path class="cls-1" d="M548.55,346.93a22,22,0,0,0,5.42-7.26h-3.24a14,14,0,0,0,12.35,7.15l-.49-3.68c-4.36,1.3-8.54,3.51-8.74,8.56l2.82-1.62c-1.92-1.35-4.11-3.39-4.61-5.79l-.48,1.83c-.32.4,1.21,2.56,1.38,2.95a1.89,1.89,0,0,0,3.42-.45,22.86,22.86,0,0,0,.29-4.45l-1.87,1.88,0-.07,2.56-2.56a12.52,12.52,0,0,0-9.93-1.25l2.12,2.76a3.46,3.46,0,0,1,4.65-1.95c2.17,1,4.08-2.22,1.89-3.24a7.21,7.21,0,0,0-9.78,3.29,1.9,1.9,0,0,0,2.12,2.76,8.67,8.67,0,0,1,7,.87c1.53.87,3.7-1,2.56-2.57a3.61,3.61,0,0,0-3.25-1.79,1.88,1.88,0,0,0-1.88,1.87,17.31,17.31,0,0,1-.15,3.45l3.43-.45c-.94-2.14-5.1-7.37-7.42-3.52-2,3.33,3.71,8.05,6,9.67,1.23.86,2.77-.31,2.82-1.62.12-3.16,3.46-4.19,6-4.94a1.89,1.89,0,0,0-.5-3.69,10.21,10.21,0,0,1-9.11-5.29,1.89,1.89,0,0,0-3.24,0,19.32,19.32,0,0,1-4.83,6.5c-1.81,1.61.85,4.25,2.65,2.65Z" transform="translate(-196.39 -231.95)"/><path class="cls-1" d="M211.94,346.75a8,8,0,0,1,5.1,4.93,1.9,1.9,0,0,0,2.75,1.12,10.9,10.9,0,0,0,3.82-3.63,6.08,6.08,0,0,1,2.45-2,4.6,4.6,0,0,0,1.71-1.24,3,3,0,0,0,.12-3.53c-1.26-1.91-2.67-3-3.17-5.4-.32-1.5-2.76-1.91-3.43-.44-.58,1.28-2.72,1.42-3.78,2.3s-1.79,4.62-3.19,4.26l.83,3.14a12.19,12.19,0,0,1,5.56-2.17l.68-.44a13.19,13.19,0,0,1-1.2,1.38c-.41.46-1,1.36-1.55,1.45l1.82.48-.5-1c1.44,1.9,4.7,0,3.24-1.9-2-2.71-6.23-2-6.72,1.63s2.7,5.78,5.38,3.09c1.83-1.84,5.57-6,1.87-8.18-1.65-1-4.06-.16-5.74.31a15.35,15.35,0,0,0-5.5,2.73c-1.14.88-.42,2.81.83,3.13a5,5,0,0,0,6.1-3.06c.33-.77.23-1.58.91-2.19a7.85,7.85,0,0,1,1.7-.73,4.75,4.75,0,0,0,2.5-2.31L221.1,338a11.84,11.84,0,0,0,1.39,3.73c.68,1.15,1.89,2,2.46,3.18l-.18-1.45c-.08.4-2.83,1.35-3.31,1.92-1.34,1.59-1.58,3.08-3.56,4.15l2.75,1.12a12,12,0,0,0-7.71-7.55c-2.29-.76-3.28,2.86-1,3.62Z" transform="translate(-196.39 -231.95)"/><path class="cls-2" d="M217.47,351.58a11.93,11.93,0,0,0-5-4.84c-2.31-1.35-5.59-2.42-6.61-5.14l-2.3,2.3c7.77,1.34,13.85-2.85,19.69-7.44,1.9-1.49-.77-4.12-2.65-2.65-4.61,3.62-9.82,7.55-16.05,6.48-1.26-.22-2.85.83-2.3,2.3,2.17,5.82,9.43,5.76,12,10.89,1.08,2.16,4.31.26,3.24-1.9Z" transform="translate(-196.39 -231.95)"/><path class="cls-2" d="M561.29,353.5c1.3-2.93,3.09-3.53,5.65-5.12a18.08,18.08,0,0,0,4.71-4.31c.89-1.14.48-3.33-1.32-3.2-6.39.46-11.69-2.92-16.82-6.29-2-1.33-3.9,1.91-1.89,3.24,5.66,3.73,11.68,7.3,18.71,6.8l-1.33-3.2c-1.9,2.44-4.07,3.72-6.73,5.16a9.45,9.45,0,0,0-4.22,5c-1,2.19,2.26,4.1,3.24,1.9Z" transform="translate(-196.39 -231.95)"/><path class="cls-2" d="M538,260.75a4.55,4.55,0,0,1-.14-3.75l-1.62.92a2.05,2.05,0,0,1,2.33,2.84l1.81-1.37c-.53.05-1.17-.07-1.67,0s-.08-.05-.11,0c.43-.19-.73.93-.28.66,2.07-1.24.18-4.48-1.89-3.24a3.3,3.3,0,0,0-1,4.58c1.06,1.73,3.13,1.95,5,1.77a2,2,0,0,0,1.81-1.38,5.76,5.76,0,0,0-6-7.59,1.91,1.91,0,0,0-1.62.93,8.64,8.64,0,0,0,.14,7.54c1.07,2.17,4.3.27,3.24-1.89Z" transform="translate(-196.39 -231.95)"/><path class="cls-2" d="M233.94,256.32l-1.29,5.23a1.91,1.91,0,0,0,1.81,2.37c2.17.23,5.55.53,6.35-2.09a20.57,20.57,0,0,0,.58-3.51,4.66,4.66,0,0,0-.54-3.21,3.4,3.4,0,0,0-5.24-.34c-1.93,1.86-1.17,4.59.1,6.58s4.54.15,3.24-1.89a3.69,3.69,0,0,1-.77-1.56c0-.09.08-.46.08-.48s.14-.07,0,0-.4,0-.58-.24a9.63,9.63,0,0,0-.05,1c-.07.56-.18,1.12-.27,1.67l-.07.48c-.18.55,0,.51.5-.11a21.17,21.17,0,0,1-3.36,0l1.81,2.37,1.29-5.23c.57-2.34-3-3.34-3.62-1Z" transform="translate(-196.39 -231.95)"/><path class="cls-2" d="M237.79,322.34c-.93,3.08-1.88,6.17-2.5,9.33-.53,2.71-.14,6.87-2,9-1.12,1.32-.09,3.77,1.82,3.14,2.3-.77,4.82-1.81,5.67-4.3a8.09,8.09,0,0,0,0-3.79,30,30,0,0,1,0-7.46c.28-2.39-3.47-2.37-3.75,0a30.09,30.09,0,0,0-.08,6.64c.07.6.25,1.22.26,1.82,0,2.45-1.08,2.81-3.08,3.47l1.82,3.13c1.83-2.13,2.07-4.36,2.39-7.06a73.51,73.51,0,0,1,3-12.92c.7-2.31-2.92-3.3-3.62-1Z" transform="translate(-196.39 -231.95)"/><path class="cls-2" d="M533,323.17c.1,2.7.17,5.4.19,8.1,0,2.35-.38,5,0,7.32.53,3.38,4.83,4.53,7.62,5.5a1.9,1.9,0,0,0,2.12-2.76,23.42,23.42,0,0,1-3.59-11c-.17-2.39-3.92-2.41-3.75,0a27.66,27.66,0,0,0,4.1,12.91l2.12-2.76c-1.44-.49-4.06-1.08-4.89-2.57-.54-1,.05-4,.05-5.16,0-3.19-.08-6.38-.2-9.57-.1-2.41-3.85-2.42-3.75,0Z" transform="translate(-196.39 -231.95)"/><path class="cls-2" d="M536.94,340.06a1.88,1.88,0,0,0,0-3.75,1.88,1.88,0,0,0,0,3.75Z" transform="translate(-196.39 -231.95)"/><path class="cls-2" d="M535.16,311.32a5.49,5.49,0,1,0-1.45-10.76,1.87,1.87,0,0,0-1.37,1.8,23.27,23.27,0,0,0,1.23,7,1.89,1.89,0,0,0,2.75,1.12,9,9,0,0,0,3.18-3.75c1-2.17-2.17-4.1-3.24-1.9a2.65,2.65,0,0,1-1,1.24l2.75,2.12c.07-.2.14-.2.35-.2,2.41,0,2.42-3.79,0-3.75a4.11,4.11,0,0,0-4,3,1.9,1.9,0,0,0,2.76,2.12,6.35,6.35,0,0,0,2.35-2.58l-3.24-1.9a5.34,5.34,0,0,1-1.83,2.41l2.75,1.12a19.92,19.92,0,0,1-1.09-6l-1.38,1.81a1.73,1.73,0,1,1,.45,3.4c-2.41.09-2.42,3.84,0,3.75Z" transform="translate(-196.39 -231.95)"/><path class="cls-2" d="M540.05,307.11c1.48-.25,2.14.22,2,1.41a.55.55,0,0,1-.12.24c-.08.11-.06.09.06,0l.24-.21a1.88,1.88,0,0,0,0-2.65,1.91,1.91,0,0,0-2.65,0,2.85,2.85,0,0,0-1,3.27,2.39,2.39,0,0,0,3.41,1.22,1.88,1.88,0,0,0-1.9-3.24Z" transform="translate(-196.39 -231.95)"/><path class="cls-2" d="M240.26,308.58a2.11,2.11,0,0,1-.78-4.12l-1.83-3.13c-1.08,1-2.84.95-3.94,2.09a3.58,3.58,0,0,0,0,4.92c3.11,3.33,7.47-.06,7.37-3.87-.06-2.25-2.9-2.37-3.68-.5a6.34,6.34,0,0,0,.71,6.1c1.39,1.95,4.64.08,3.24-1.89A3,3,0,0,1,241,305l-3.68-.5a1.61,1.61,0,0,1-.54,1.44c-.17.14-.28-.18-.35-.15-1,.45.74-.06.32,0a8,8,0,0,0,3.54-1.82,1.89,1.89,0,0,0-1.83-3.14,5.85,5.85,0,0,0,1.78,11.49c2.41,0,2.42-3.79,0-3.75Z" transform="translate(-196.39 -231.95)"/></g><g id="Layer_1" data-name="Layer 1"><text class="cls-3" transform="translate(57.16 113.65)">D</text><text class="cls-4" transform="translate(148.96 74.65)">ockendorf</text><text class="cls-5" transform="translate(155.58 106.18)">design</text><path class="cls-2" d="M533.57,301.69c3.14,0,8,1.73,7.08,5.85-.67,3-4.61,3.53-7.1,3.74-1.59.14-1.6,2.64,0,2.5,4-.34,9.35-1.69,9.66-6.57.33-5.38-5-8-9.64-8a1.25,1.25,0,0,0,0,2.5Z" transform="translate(-196.39 -231.95)"/><path class="cls-2" d="M539.8,302l19.59-11.2a1.25,1.25,0,0,0-1.26-2.15l-19.59,11.19A1.25,1.25,0,0,0,539.8,302Z" transform="translate(-196.39 -231.95)"/><path class="cls-2" d="M536.92,313.56a79.48,79.48,0,0,1,22.41,10.71c1.33.91,2.58-1.26,1.26-2.16a81.86,81.86,0,0,0-23-11,1.25,1.25,0,0,0-.66,2.41Z" transform="translate(-196.39 -231.95)"/><path class="cls-2" d="M560.05,290.31a66,66,0,0,1,15.76,15.07c1,1.28,3.12,0,2.15-1.26a69.4,69.4,0,0,0-16.65-16c-1.34-.9-2.59,1.26-1.26,2.16Z" transform="translate(-196.39 -231.95)"/><path class="cls-2" d="M562.53,324.38a85.41,85.41,0,0,1,14.91-17.33c1.2-1.07-.57-2.83-1.77-1.77a87.8,87.8,0,0,0-15.3,17.84c-.88,1.35,1.28,2.61,2.16,1.26Z" transform="translate(-196.39 -231.95)"/><path class="cls-2" d="M558.07,323.13l-15.39,21.94c-.92,1.32,1.24,2.57,2.16,1.26l15.39-21.93c.92-1.32-1.24-2.57-2.16-1.27Z" transform="translate(-196.39 -231.95)"/><path class="cls-2" d="M532.63,313a231.48,231.48,0,0,0,9.49,33.39c.55,1.5,3,.85,2.41-.66A231.84,231.84,0,0,1,535,312.34c-.32-1.58-2.73-.91-2.41.66Z" transform="translate(-196.39 -231.95)"/><path class="cls-2" d="M543.45,344.83l-9.16-4.53c-1.44-.72-2.7,1.44-1.26,2.15l9.16,4.54c1.44.72,2.71-1.44,1.26-2.16Z" transform="translate(-196.39 -231.95)"/><path class="cls-2" d="M560.41,288.33c-2.52-12.8-10.3-27-25.34-26-1.59.1-1.61,2.6,0,2.5C549,263.89,555.69,277.3,558,289c.31,1.58,2.72.91,2.41-.66Z" transform="translate(-196.39 -231.95)"/><path class="cls-2" d="M543.91,262.18c-1.19-1-.71-3-.92-4.36a5.54,5.54,0,0,0-1.79-3.33,6.12,6.12,0,0,0-7.07-.84,1.25,1.25,0,0,0,1.26,2.15,3.57,3.57,0,0,1,5.12,2.25c.46,2.1-.27,4.32,1.64,5.89,1.23,1,3-.74,1.76-1.76Z" transform="translate(-196.39 -231.95)"/><path class="cls-2" d="M543.23,256.28c4-2.18,3.27-10.35,1.33-13.76-3.25-5.7-11-6-16.69-5.19-8.34,1.17-15.93,5.12-24.09,7a34.75,34.75,0,0,1-27.9-5.19,1.26,1.26,0,0,0-1.83,1.42A21.26,21.26,0,0,0,494,255.49c12.61.51,26.17-7.66,37.92-.09,1.36.87,2.61-1.29,1.26-2.16-17.11-11-48.27,12.62-56.72-13.32l-1.84,1.41c10.3,7,22.09,7.92,33.81,4.34,6.52-2,12.83-4.84,19.62-5.83,3.61-.52,7.62-.74,11,1,3.07,1.59,4.17,3.84,4.36,7.29.09,1.7.41,5-1.4,6-1.42.76-.16,2.92,1.26,2.16Z" transform="translate(-196.39 -231.95)"/><path class="cls-2" d="M534.73,343.7c3.4,1.36,6.8,2.7,10.18,4.08,1.84.75,4,1.34,5.11,3.23s1.62,5.41-1.21,6c-5.61,1.15-9.09-6.37-14.88-5.07-1.57.35-.9,2.76.67,2.41,2.91-.65,5.26,2,7.59,3.32a14.21,14.21,0,0,0,5.48,1.75c2.81.29,5.3-.09,5.57-3.31.28-3.38-.55-7-3.53-8.89-4.17-2.69-9.73-4.08-14.31-5.92-1.49-.6-2.14,1.82-.67,2.41Z" transform="translate(-196.39 -231.95)"/><path class="cls-2" d="M552.71,354.09c3.11.57,7.73,1.44,8.21,5.27.2,1.57,2.71,1.59,2.5,0-.65-5.19-5.52-6.85-10-7.68-1.57-.28-2.24,2.12-.66,2.41Z" transform="translate(-196.39 -231.95)"/><path class="cls-2" d="M548.64,301.9a18.43,18.43,0,0,0,1.57,12.61,1.26,1.26,0,0,0,2.33-.63,65.25,65.25,0,0,1,.59-14.51c.15-.95-.84-2.1-1.84-1.41a5.58,5.58,0,0,0-2.52,4.2c-.21,1.59,2.29,1.58,2.5,0l1.29-2-1.84-1.41a68.14,68.14,0,0,0-.68,15.17l2.33-.63a15.71,15.71,0,0,1-1.31-10.69c.34-1.57-2.07-2.23-2.42-.66Z" transform="translate(-196.39 -231.95)"/><path class="cls-2" d="M556.61,295.18l1.12,21.36,2.45-.33a41.46,41.46,0,0,1,.48-20.9l-2.45-.34q.27,10.83.55,21.65a1.25,1.25,0,0,0,2.5,0q-.27-10.81-.55-21.65a1.26,1.26,0,0,0-2.46-.33,44.18,44.18,0,0,0-.48,22.23,1.26,1.26,0,0,0,2.46-.33l-1.12-21.36c-.08-1.6-2.58-1.61-2.5,0Z" transform="translate(-196.39 -231.95)"/><path class="cls-2" d="M563.71,297.5l.14,14.45a1.26,1.26,0,0,0,2.33.63c2.4-4.73,1.86-9.8,1.12-14.88-.23-1.59-2.64-.91-2.41.66.64,4.35,1.2,8.89-.87,12.95l2.33.64-.14-14.45a1.25,1.25,0,0,0-2.5,0Z" transform="translate(-196.39 -231.95)"/><path class="cls-2" d="M561.11,359.87c-.1,8.55-12.2,14.25-19.66,14.4-6.88.14-13.38-3.26-20-4.81a25.7,25.7,0,0,0-16.57,1.31c-7.87,3.13-16.05,1.9-20.24-6.27l-2,1.52c8.42,6.83,17.85.25,25.89-3.72,1.44-.71.18-2.87-1.26-2.16-6.75,3.34-15.58,10-22.86,4.11a1.25,1.25,0,0,0-2,1.51,17,17,0,0,0,17,9.31c4.2-.55,7.77-3.13,11.92-3.84,5.15-.89,10.34.79,15.21,2.32,7.4,2.32,14.88,4.72,22.45,1.69,6.72-2.69,14.43-7.32,14.53-15.37a1.25,1.25,0,0,0-2.5,0Z" transform="translate(-196.39 -231.95)"/><path class="cls-2" d="M528.1,373.27c-.81,1.39-3.93,2.22-5.45,2.45a38.74,38.74,0,0,1-4.45.1,39.54,39.54,0,0,0-6.51.63,16.74,16.74,0,0,0-9.63,5.45l2,1.51A38.65,38.65,0,0,1,512.38,372c1.17-1.11-.6-2.87-1.76-1.77a40.16,40.16,0,0,0-8.76,11.95c-.57,1.19,1,2.66,2,1.52,4.9-5.68,12-5.08,18.82-5.45,3.25-.17,5.88-.71,7.61-3.69a1.25,1.25,0,0,0-2.16-1.26Z" transform="translate(-196.39 -231.95)"/><path class="cls-2" d="M499,372.73c-4.35,9.09-15,2.48-21.75,7.44l1.71,1.71a16.47,16.47,0,0,1,10.44-8.44,1.25,1.25,0,0,0-.66-2.41,18.81,18.81,0,0,0-11.94,9.59c-.53,1,.63,2.5,1.71,1.71,4.59-3.37,10.05-.79,15.21-2.21A11.32,11.32,0,0,0,501.2,374c.69-1.45-1.47-2.72-2.16-1.26Z" transform="translate(-196.39 -231.95)"/><path class="cls-2" d="M557.4,353.18a17.37,17.37,0,0,1,9.65-7.89.63.63,0,0,0-.17-1.23,16.84,16.84,0,0,1-10.45-4.58c-1.69-1.58-3-3.23-5.39-3.56-.79-.11-1.13,1.1-.33,1.21,3.24.43,5.41,4.17,8.17,5.79a18.37,18.37,0,0,0,8,2.39l-.16-1.23a18.81,18.81,0,0,0-10.4,8.47.63.63,0,0,0,1.08.63Z" transform="translate(-196.39 -231.95)"/><path class="cls-2" d="M553.17,335c5.59,4.93,12.84,6.08,20,7l-.44-1.07c-3.06,2.66-4,6.36-7.9,8.18-2.4,1.1-4.5,2.12-5.14,4.87-.19.78,1,1.12,1.2.33.9-3.83,5.42-3.78,7.85-6.12,2-1.88,2.79-4.57,4.88-6.37.46-.4,0-1-.45-1.07-6.8-.87-13.79-1.93-19.12-6.63-.6-.53-1.48.35-.88.88Z" transform="translate(-196.39 -231.95)"/><path class="cls-2" d="M531.73,255.07c1.77,16.27.89,32.59.48,48.91s-.27,32.76.36,49.13c.06,1.6,2.56,1.61,2.5,0q-.95-24.56-.36-49.13c.41-16.32,1.29-32.64-.48-48.91-.17-1.59-2.67-1.6-2.5,0Z" transform="translate(-196.39 -231.95)"/><path class="cls-2" d="M508.18,362.54c4.93-.75,9.36-.24,14.23.63,2.92.52,5.84.95,8.67-.17,4.31-1.71,5.75-5.76,3.81-9.86-.69-1.46-2.85-.19-2.16,1.26,3.8,8-6.88,6.85-9.65,6.36-1.67-.3-3.29-.7-5-.91a37.88,37.88,0,0,0-10.58.28c-1.59.24-.91,2.65.66,2.41Z" transform="translate(-196.39 -231.95)"/><path class="cls-2" d="M531.5,255.38c-8.07,5.76-19.73,1.95-28.89,1.72-8.29-.21-16.45.93-23.56,5.42l.91.71a15.87,15.87,0,0,1,7.75-9.65c.7-.39.07-1.47-.63-1.08a17.14,17.14,0,0,0-8.32,10.39.63.63,0,0,0,.92.71c8.85-5.59,19.23-5.72,29.35-4.88,7.76.65,16.29,2.6,23.1-2.26.65-.47,0-1.55-.63-1.08Z" transform="translate(-196.39 -231.95)"/><path class="cls-2" d="M523.89,239.11c-2.3-2.27-5-2.91-8.24-2.61-7.37.67-12.84,3.06-19.14-2.66a.63.63,0,0,0-1,.76,73.13,73.13,0,0,0,5.52,9.75c.45.67,1.53,0,1.08-.63a73.24,73.24,0,0,1-5.52-9.76l-1,.76a16.14,16.14,0,0,0,9.45,4.44C511,239.73,518,235,523,240c.57.57,1.46-.31.89-.88Z" transform="translate(-196.39 -231.95)"/><path class="cls-2" d="M241,298.93c-4.63,0-10,2.64-9.64,8,.3,4.87,5.68,6.23,9.65,6.57,1.61.13,1.6-2.37,0-2.5-2.49-.22-6.42-.77-7.09-3.75-.93-4.12,3.94-5.83,7.08-5.84a1.25,1.25,0,0,0,0-2.5Z" transform="translate(-196.39 -231.95)"/><path class="cls-2" d="M236.06,299.62l-19.59-11.2a1.25,1.25,0,0,0-1.27,2.16l19.6,11.2a1.25,1.25,0,0,0,1.26-2.16Z" transform="translate(-196.39 -231.95)"/><path class="cls-2" d="M237,310.89a81.83,81.83,0,0,0-23,10.95c-1.32.91-.07,3.07,1.26,2.16a79.73,79.73,0,0,1,22.41-10.7,1.25,1.25,0,0,0-.66-2.41Z" transform="translate(-196.39 -231.95)"/><path class="cls-2" d="M213.29,287.89a69.44,69.44,0,0,0-16.66,16c-1,1.29,1.21,2.53,2.16,1.26a65.6,65.6,0,0,1,15.76-15.07c1.32-.9.07-3.07-1.26-2.16Z" transform="translate(-196.39 -231.95)"/><path class="cls-2" d="M214.23,322.86A87.54,87.54,0,0,0,198.93,305c-1.2-1.07-3,.7-1.77,1.77a85.41,85.41,0,0,1,14.91,17.33c.87,1.34,3,.09,2.16-1.26Z" transform="translate(-196.39 -231.95)"/><path class="cls-2" d="M214.37,324.13l15.39,21.93c.91,1.31,3.08.06,2.16-1.26l-15.39-21.93c-.92-1.31-3.09-.06-2.16,1.26Z" transform="translate(-196.39 -231.95)"/><path class="cls-2" d="M239.56,312.07a233.26,233.26,0,0,1-9.49,33.4c-.55,1.51,1.86,2.16,2.41.66A231.84,231.84,0,0,0,242,312.74c.32-1.57-2.09-2.24-2.41-.67Z" transform="translate(-196.39 -231.95)"/><path class="cls-2" d="M232.41,346.73l9.16-4.54c1.44-.71.17-2.87-1.26-2.16l-9.17,4.54c-1.44.72-.17,2.87,1.27,2.16Z" transform="translate(-196.39 -231.95)"/><path class="cls-2" d="M216.6,288.73c2.31-11.71,9-25.11,22.92-24.21,1.61.1,1.6-2.4,0-2.5-15-1-22.81,13.25-25.33,26-.31,1.57,2.1,2.25,2.41.67Z" transform="translate(-196.39 -231.95)"/><path class="cls-2" d="M232.45,263.68c1.91-1.58,1.17-3.79,1.64-5.9a3.56,3.56,0,0,1,5.12-2.24,1.25,1.25,0,0,0,1.26-2.16,6.13,6.13,0,0,0-7.08.85,5.56,5.56,0,0,0-1.75,3.11c-.26,1.43.28,3.55-1,4.57s.54,2.79,1.77,1.77Z" transform="translate(-196.39 -231.95)"/><path class="cls-2" d="M232.63,253.86c-3.9-2.1-.38-11.18,1.88-12.76,3-2.07,7.17-2.08,10.59-1.73,7.31.73,14.11,3.91,21.07,6,11.72,3.58,23.51,2.63,33.8-4.34l-1.83-1.41c-8.45,25.93-39.61,2.3-56.72,13.32-1.35.87-.1,3,1.26,2.16,11.73-7.56,25.31.57,37.92.09a21.26,21.26,0,0,0,19.95-14.91,1.26,1.26,0,0,0-1.84-1.41,34.73,34.73,0,0,1-27.89,5.19c-8.16-1.92-15.75-5.87-24.1-7-5.71-.8-13.43-.52-16.68,5.18-1.94,3.41-2.72,11.59,1.33,13.76,1.41.77,2.68-1.39,1.26-2.15Z" transform="translate(-196.39 -231.95)"/><path class="cls-2" d="M239.2,341c-4.6,1.84-10.13,3.22-14.31,5.92-3,1.92-3.81,5.51-3.53,8.89.27,3.21,2.74,3.6,5.56,3.31a14.24,14.24,0,0,0,5-1.47c2.52-1.28,5-4.29,8.09-3.6,1.57.35,2.24-2.06.67-2.41-5.79-1.3-9.27,6.22-14.89,5.06-2.83-.58-2.26-4.1-1.2-6s3.27-2.48,5.1-3.23c3.39-1.39,6.79-2.72,10.18-4.08,1.48-.59.83-3-.66-2.41Z" transform="translate(-196.39 -231.95)"/><path class="cls-2" d="M221.22,351.42c-4.53.82-9.39,2.48-10.05,7.67-.2,1.59,2.3,1.58,2.5,0,.48-3.82,5.11-4.69,8.22-5.26,1.58-.29.91-2.7-.67-2.41Z" transform="translate(-196.39 -231.95)"/><path class="cls-2" d="M223.54,302.3A15.76,15.76,0,0,1,222.23,313l2.33.63a68.14,68.14,0,0,0-.68-15.17L222,299.86l1.28,2c.21,1.57,2.72,1.59,2.5,0a5.54,5.54,0,0,0-2.52-4.2c-1-.7-2,.45-1.83,1.41a65.83,65.83,0,0,1,.59,14.51,1.26,1.26,0,0,0,2.33.63A18.45,18.45,0,0,0,226,301.63c-.35-1.57-2.76-.9-2.41.67Z" transform="translate(-196.39 -231.95)"/><path class="cls-2" d="M215.49,294.91l-1.12,21.36a1.25,1.25,0,0,0,2.45.34,44,44,0,0,0-.48-22.23,1.25,1.25,0,0,0-2.45.33q-.27,10.83-.55,21.65a1.25,1.25,0,0,0,2.5,0q.27-10.83.55-21.65l-2.46.33a41.24,41.24,0,0,1,.48,20.9l2.46.33L218,294.91c.08-1.61-2.42-1.6-2.5,0Z" transform="translate(-196.39 -231.95)"/><path class="cls-2" d="M208.39,297.24l-.14,14.44,2.33-.63c-2.07-4.06-1.51-8.6-.87-12.95.23-1.57-2.18-2.25-2.41-.66-.75,5.07-1.29,10.15,1.12,14.87a1.26,1.26,0,0,0,2.33-.63l.14-14.44a1.25,1.25,0,0,0-2.5,0Z" transform="translate(-196.39 -231.95)"/><path class="cls-2" d="M211,359.6c.1,8,7.7,12.62,14.38,15.31,7.64,3.08,15.11.73,22.6-1.63,4.51-1.41,9.16-2.89,13.94-2.43,4.62.45,8.46,3.3,13,3.93a17,17,0,0,0,17.14-9.28,1.25,1.25,0,0,0-2-1.51c-7.27,5.89-16.12-.78-22.86-4.11-1.44-.72-2.71,1.44-1.26,2.15,8,4,17.46,10.56,25.88,3.72l-2-1.51c-4.17,8.11-12.4,9.42-20.25,6.26a25.67,25.67,0,0,0-16.56-1.31c-6.58,1.58-13.07,4.91-19.95,4.82-7.43-.1-19.56-5.94-19.66-14.41a1.25,1.25,0,0,0-2.5,0Z" transform="translate(-196.39 -231.95)"/><path class="cls-2" d="M244.34,374.27c1.71,3,4.37,3.51,7.6,3.69,6.84.37,13.9-.26,18.83,5.44,1,1.14,2.55-.31,2-1.51A40,40,0,0,0,264,369.94c-1.17-1.11-2.94.66-1.77,1.76a38.55,38.55,0,0,1,8.37,11.45l2-1.52a16.81,16.81,0,0,0-9.63-5.44c-4.22-.88-13.94,1.08-16.41-3.18a1.25,1.25,0,0,0-2.16,1.26Z" transform="translate(-196.39 -231.95)"/><path class="cls-2" d="M274.32,373.6a11.29,11.29,0,0,0,7.43,6.14c5.19,1.42,10.59-1.19,15.21,2.21,1.08.79,2.25-.7,1.71-1.71a18.81,18.81,0,0,0-11.93-9.59,1.25,1.25,0,0,0-.67,2.41,16.42,16.42,0,0,1,10.44,8.44l1.71-1.71c-6.75-5-17.4,1.65-21.74-7.45-.7-1.45-2.85-.18-2.16,1.26Z" transform="translate(-196.39 -231.95)"/><path class="cls-2" d="M218.28,352.28a18.82,18.82,0,0,0-10.4-8.46l-.17,1.23a18.51,18.51,0,0,0,8-2.39c2.75-1.62,4.95-5.36,8.17-5.8.79-.11.45-1.31-.33-1.2-2.42.32-3.7,2-5.39,3.56a16.87,16.87,0,0,1-10.46,4.58.63.63,0,0,0-.16,1.23,17.43,17.43,0,0,1,9.65,7.88.63.63,0,0,0,1.08-.63Z" transform="translate(-196.39 -231.95)"/><path class="cls-2" d="M220.54,333.87c-5.32,4.7-12.32,5.76-19.12,6.64-.47.06-.9.67-.44,1.06,2.09,1.81,2.92,4.49,4.88,6.38,2.43,2.34,6.95,2.29,7.85,6.12.18.78,1.38.45,1.2-.33-.64-2.75-2.73-3.77-5.14-4.88-3.91-1.79-4.86-5.54-7.9-8.17l-.45,1.07c7.17-.92,14.41-2.07,20-7,.6-.54-.29-1.42-.89-.89Z" transform="translate(-196.39 -231.95)"/><path class="cls-2" d="M240.37,254.8c-1.77,16.28-.89,32.6-.48,48.92s.26,32.76-.36,49.13c-.06,1.61,2.44,1.6,2.5,0q.93-24.56.36-49.13c-.41-16.32-1.29-32.64.48-48.92.17-1.6-2.33-1.58-2.5,0Z" transform="translate(-196.39 -231.95)"/><path class="cls-2" d="M267.08,359.87a38.34,38.34,0,0,0-10.59-.29c-1.68.21-3.31.62-5,.91-2.78.5-13.45,1.66-9.65-6.36.69-1.44-1.47-2.71-2.16-1.26-1.94,4.1-.51,8.15,3.8,9.87,2.57,1,5.23.77,7.89.31,5.15-.9,9.8-1.57,15-.77,1.57.24,2.25-2.17.66-2.41Z" transform="translate(-196.39 -231.95)"/><path class="cls-2" d="M242.47,256.19c6.81,4.87,15.34,2.91,23.1,2.27,10.11-.84,20.5-.71,29.35,4.88a.63.63,0,0,0,.92-.71,17.14,17.14,0,0,0-8.32-10.39.63.63,0,0,0-.63,1.08,15.88,15.88,0,0,1,7.74,9.64l.92-.7c-7.11-4.5-15.27-5.63-23.56-5.42-9.15.23-20.83,4-28.89-1.73-.66-.46-1.28.62-.63,1.08Z" transform="translate(-196.39 -231.95)"/><path class="cls-2" d="M246.77,238.29c5-4.93,12-.27,17.92-.83a16.16,16.16,0,0,0,9.45-4.45l-1-.75a73.24,73.24,0,0,1-5.52,9.76c-.45.67.63,1.29,1.08.63a73.24,73.24,0,0,0,5.52-9.76.63.63,0,0,0-1-.76,15.14,15.14,0,0,1-10.13,4.15c-3.08.06-6-1.21-9-1.49-3.2-.29-5.94.33-8.24,2.61-.57.57.31,1.45.89.89Z" transform="translate(-196.39 -231.95)"/><path class="cls-2" d="M418.41,358.74c-8.65,3.09-6.05,13.82,2.26,15.16,6.13,1,11.77-2.74,17.39-4.52a47,47,0,0,1,18.26-2.05,29.86,29.86,0,0,1,4.51.64q4.67.52-.22,4.29c0,.8,1.28.8,1.25,0-.18-4.95-7.14-2.61-4.88,1.74s9.42,1.65,9.08-2.84c-.55-7.23-16.14-5.37-20.38-4.78-5.39.74-10.17,2.65-15.2,4.58-3.32,1.28-7.23,2.63-10.78,1.46-5.93-1.95-8-9.95-1-12.48.76-.27.43-1.48-.33-1.2Z" transform="translate(-196.39 -231.95)"/><path class="cls-2" d="M360.9,359.94c6.19,2.22,5.59,10.24-.31,12.31-3.53,1.23-7.27.26-10.64-1-5.31-2-10.31-4.11-16-4.88-4.18-.57-19.82-2.45-20.38,4.78-.34,4.55,6.84,7,9.08,2.84s-4.69-6.76-4.88-1.74c0,.8,1.22.8,1.25,0q-4.89-3.76-.22-4.29a18,18,0,0,1,2.84-.43,44.2,44.2,0,0,1,7-.36,48,48,0,0,1,12.08,1.93c5.92,1.75,11.83,5.83,18.24,4.79,8.3-1.34,10.92-12.07,2.26-15.16-.76-.28-1.08.93-.33,1.2Z" transform="translate(-196.39 -231.95)"/><text class="cls-6" transform="translate(134.95 22.62)"><tspan xml:space="preserve">Est.       2020</tspan></text></g></svg>